<svg width="1048" height="1203" viewBox="0 0 1048 1203" fill="none" xmlns="http://www.w3.org/2000/svg">
<g clip-path="url(#clip0_11_474)">
<rect width="1048" height="1203" fill="white"/>
<path d="M314.441 66.0412L314.921 57.0546L309.642 55.4768L307.242 51.498L309.642 44.4322L312.042 42.0998L310.945 36.9685L313.55 29.1001L319.926 31.46L330.622 29.1001L337.136 33.8198L334.736 36.9685L348.311 40.1173L357.224 39.3284L362.092 33.0378L364.698 22.4185L369.497 17.3078L381.907 13.377L389.792 14.9479L393.082 11.4082L398.088 12.5881L404.395 11.0103L411.389 11.7992L416.668 13.768L431.957 5.50858L437.374 5.1107L445.259 0.39102L452.458 0L450.744 5.50858L445.259 10.2283L448.07 18.8787L452.663 23.2005L458.354 24.3804L459.04 33.4288L464.936 36.1796L467.747 42.0998L475.632 46.01M314.441 66.0412L312.042 67.619L301.757 65.6982L296.752 63.2972V58.2208L293.256 57.0546L284.959 59.7986L280.64 68.0306L281.463 79.8298L288.936 82.1622V85.7294L285.645 92.0406L291.336 99.518L289.965 101.85L281.668 104.594L281.051 99.861L276.663 95.5392L275.155 88.885L269.876 86.8956L259.454 91.2174L254.655 90.8744V94.373L251.981 96.774H242.862L239.365 94.7846L236.486 89.2966L234.292 87.7188L232.578 73.5186L227.984 76.3312L224.487 72.3524L218.797 74.3418L216.945 79.8298L218.591 82.1622L219.277 94.7846L215.78 103.84M314.441 66.0412L317.527 72.3524L321.435 72.764L328.634 76.6742L329.319 81.8192L328.222 85.7294L323.423 86.8956L320.818 89.6396L324.931 93.2068L326.234 102.262L324.314 106.995L323.834 116.051L320.338 119.961L315.95 131.76L319.035 133.338L321.023 139.237L320.338 143.971L324.726 153.026L333.227 151.448L334.736 147.469L345.02 147.126L347.9 148.293M475.632 46.01L483.037 48.754L491.744 47.9994L498.326 49.1656M475.632 46.01L468.844 53.0758L466.239 51.9096L455.543 56.2314L452.458 51.9096L446.15 48.3424L440.254 63.2972L426.884 66.8644L425.17 68.0306L425.581 70.4316L429.969 72.3524L427.158 82.1622L423.661 84.1516L427.569 91.2174L427.981 94.7846L433.877 97.117L433.466 100.684L437.854 103.428L431.957 111.317L424.484 114.473L417.285 115.227L415.365 123.871V129.016L408.783 129.771L406.795 126.615L400.076 126.272L391.78 130.182L389.106 136.905L385.678 135.327L382.798 137.66L376.49 150.625L375.805 156.936L371.417 163.659L361.201 162.424L355.305 165.991L350.3 161.67L352.425 154.192L347.9 148.293M498.326 49.1656L505.114 52.3212L523.9 52.6642L530.208 53.899L537.201 57.3976L548.788 55.4768L557.29 55.0652L572.991 59.387L575.39 58.9754L574.568 65.2866L572.373 68.0306L567.574 68.4422L562.5 75.0964L554.204 80.653L549.885 87.3072L553.793 96.774L554.89 94.373L562.089 95.5392L566.477 98.6948H572.579L571.071 105.418L562.775 112.895L559.689 119.961L563.597 124.283L571.482 121.95L572.579 123.871L569.083 136.082L571.071 142.805L576.967 143.971L587.183 149.047L594.176 159.68L597.467 161.67L593.971 167.158H582.384L584.166 164.414H588.76L584.372 160.092L585.675 157.759L576.282 147.469L570.591 145.137L568.397 144.382L566.477 148.293L568.671 151.037L558.798 158.102H554.684L558.798 154.947L558.181 153.026L544.4 150.282L541.589 147.881L536.515 150.625L532.607 149.459L533.704 153.026L529.316 155.77L531.305 158.514L536.104 156.525L532.196 162.836M498.326 49.1656L499.629 61.3764L492.018 63.7088L490.441 70.02L483.448 71.1862L479.54 77.4974L474.741 86.141L469.735 89.2966L466.856 93.9614L470.832 98.3518L477.14 100.684L479.951 105.761L481.048 111.66L476.249 115.639L475.152 119.961L477.14 128.604L483.928 133.338L487.836 143.148L493.321 143.559L496.818 147.126L498.737 146.715L506.211 140.404L509.022 143.971L512.518 141.227L514.507 143.559H519.306L520.814 141.227L523.214 143.148L525.408 150.625L532.196 162.836M347.9 148.293L343.032 157.759L332.13 175.047L332.816 188.012L332.13 193.912L334.119 197.067L337.136 196.656L338.712 202.967L336.724 208.455L342.003 211.61L344.403 209.621L349.82 214.766L361.612 222.586L362.298 226.016L366.617 228.006L369.017 233.7L375.393 230.887L379.781 232.808L378.89 237.61L385.198 237.816V240.697L397.676 250.095M532.196 162.836L529.111 164.825L519.512 166.403L506.622 175.458L493.321 182.867L477.14 190.756L480.225 183.279L488.933 178.957L484.134 174.223L479.128 179.368L471.655 182.867L465.759 188.012L463.839 193.912L464.936 195.901L460.959 206.122L456.64 205.711L456.366 208.043L458.354 211.61L460.548 210.033L461.851 207.7L462.536 216.755L464.936 219.088L468.433 215.521L470.832 222.586L472.135 229.995L470.352 232.396L475.632 233.905L485.436 243.715L489.824 244.607L486.533 255.309L483.037 262.306L481.048 258.396L481.94 252.908L479.54 254.005L478.649 265.599M175.671 118.383L182.39 120.372L184.31 123.116L178.825 132.926L187.052 136.905L190.617 144.382L190.206 150.625L197.679 151.86L202.41 144.725L201.999 140.815L198.502 139.237L196.102 134.161L198.845 131.76L197.679 126.272L202.41 123.871L203.576 117.217L211.049 110.906L215.78 103.84M175.671 118.383L171.351 119.549L165.455 116.394L157.982 106.584L151.331 101.439V95.5392L152.908 86.141V79.8298L149.343 77.8404L142.692 80.2414L140.704 86.5526L136.385 89.2966L132.476 94.373L125.757 97.117L123.015 101.096L127.334 107.75L125.757 115.639L118.284 121.127L117.53 127.027L115.542 130.594L108.068 132.172L104.16 137.248M175.671 118.383L174.917 129.359L164.701 140.404L165.044 151.037L162.301 154.192L169.02 167.158L171.351 169.147L170.597 174.223L172.928 176.624L173.683 182.524L174.505 186.434L179.236 190.001L183.967 199.811L176.082 203.721L177.659 206.122L173.34 212.022L169.774 210.444L167.443 206.122L160.381 204.956L157.57 210.856L156.816 213.6L161.547 224.507L161.136 228.006L170.597 244.195H178.825L185.475 240.285L187.464 241.108L187.875 247.488L194.183 249.615L195.348 253.594L201.999 260.797L201.656 265.187L205.564 268.686H209.061L214.614 280.005L214.203 284.395M215.78 103.84L224.487 103.428M104.16 137.248L102.995 140.061L91.6132 138.483L87.6366 133.749L79.4091 131.76L76.2552 134.916L64.4625 140.404L58.5661 139.649L49.9272 143.148L44.8125 143.559L40.4862 141.57L36.9483 137.66L32.622 143.971L27.5141 146.715L18.8684 148.704L17.2915 152.203L18.0799 161.258L21.6178 165.58L31.4428 170.725L30.6612 176.967L32.622 185.68L40.0954 191.168M104.16 137.248L104.983 139.649L105.326 153.026L106.491 158.926L109.234 161.67L109.645 171.068L106.148 176.624L95.5213 180.946H89.2135L78.9977 177.379L72.3472 179.368L65.628 184.856L51.5042 189.178L46.0192 188.424L44.8125 186.023L40.0954 191.168M214.203 284.395H217.768L218.591 280.485L223.185 282.886V275.408L227.093 267.588L226.681 262.306L222.773 259.287L223.185 255.995L232.578 235.689H239.777L242.176 237.198L242.382 231.71L246.29 233.905L250.267 232.396L250.061 235.895L253.969 238.296L259.866 237.61V234.386L266.859 238.296L265.968 235.689H271.864L270.356 231.299L273.167 234.386L279.063 231.71L281.668 233.905L286.056 242.206L295.244 241.108L298.741 242.206L309.231 248.106H314.441L317.047 253.594L321.846 255.514L326.92 255.995L332.61 252.908L336.518 247.488H341.112L343.512 252.084L353.728 255.514L362.709 250.507L369.908 249.615L376.49 252.908L383.895 250.987L387.803 249.409L397.676 250.095M214.203 284.395L214.614 292.284M40.0954 191.168L41.6654 194.666L46.7733 197.822L41.2746 207.7L42.0562 215.178L37.3391 220.185L35.7691 218.608L29.8727 220.597L25.9441 225.399H23.1878L20.0477 229.789L11.3951 226.016L5.50557 228.486L0 232.396L4.7171 241.108L9.82501 243.098V252.908L13.7536 257.984L21.2269 261.894L26.7257 261.208L32.622 266.285L31.8404 269.509L34.9806 278.907L36.1599 281.994L30.2635 281.308L26.7257 283.983L27.1233 288.785L22.797 294.685L18.4707 297.703L17.6891 302.986L23.9763 310.806L20.4385 313.001L19.65 318.283L23.9763 326.584L29.8727 333.993L33.0197 333.581L42.4539 337.903L51.0928 343.803L62.1313 348.193L85.3055 342.293L84.1399 346.204L87.6366 352.309M397.676 250.095L408.783 252.084L416.188 255.514L423.661 250.507L428.872 245.705L434.769 245.087L444.573 244.607L452.663 245.705L456.64 249.615L464.25 250.507L468.158 249.409L470.147 257.504L474.329 260.385L478.649 265.599M478.649 265.599L470.147 259.905L466.856 275.614L469.255 285.287L470.832 287.894L471.244 301.682L474.741 316.294L480.637 331.112L483.928 335.09L487.425 338.383L489.344 341.402L497.229 347.301L502.234 353.681L509.433 358.689L513.41 359.992M87.6366 352.309L91.956 351.692L93.533 346.204L97.8524 348.193L112.799 350.182L113.965 349.291L112.388 346.89L117.118 344.9L120.272 341.882V327.201L125.346 322.605L128.5 316.294L131.242 314.305L130.488 308.885L135.219 301.202L135.973 302.094L136.385 302.986L144.201 307.582L148.931 303.603H161.547L164.289 299.693L165.455 295.302L174.917 296.606L178.413 305.592L183.144 298.595L190.206 297.086L187.464 289.197L191.372 284.395H194.183L201.245 290.295L205.153 291.804L209.884 296.194L214.614 292.284M87.6366 352.309L82.563 363.491L76.2552 369.39L69.6047 378.308L71.5244 387.089H87.6366L95.5213 383.796L110.057 380.298L119.45 375.29L124.592 370.488L127.746 368.499L126.58 365.48L132.065 358.209L133.642 351.692L140.293 344.9L148.177 340.99L148.589 337.011L152.908 328.093L161.547 322.194L166.621 319.312L174.917 314.305L183.144 313.893L184.721 315.882H191.372L197.679 318.695L208.718 321.302L209.884 325.692L215.369 328.093L216.945 322.605L228.395 329.602L229.081 332.003L234.292 335.982L238.268 335.09L240.394 338.589L245.673 341.402L249.581 346.409L253.969 347.301L262.471 354.298L266.379 356.082L268.367 350.8L278.172 358.209L284.068 357.591M513.41 359.992L517.318 360.198L529.796 367.881L549.885 383.796L556.604 389.079L569.494 396.487L575.87 398.888L578.27 396.007L584.166 401.907L588.28 403.896L591.16 413.706L600.964 434.698L605.352 445.193L609.671 453.494L611.66 460.285L613.168 467.283L617.145 479.493M513.41 359.992L511.627 370.488L507.513 374.81L503.537 375.29L499.834 369.802L496.338 371.791L495.241 368.087L490.441 365.892M214.614 292.284L222.705 293.107L226.681 295.783L231.069 294.205L238.474 299.213L238.885 304.083L234.977 309.091L234.292 314.785L237.377 315.882L239.777 313.893H247.661L251.981 316.294L255.066 321.782M255.066 321.782L259.866 318.695L267.27 307.993L275.566 308.885L280.16 311.012V315.882L287.359 322.194L292.433 323.291M255.066 321.782L260.551 328.093L268.847 333.993L270.356 341.882L273.647 340.99L273.167 344.283L279.749 345.792L281.051 349.702L286.536 352.103L284.068 357.591M292.433 323.291L297.849 326.104M292.433 323.291L295.244 325.212L297.849 326.104M284.068 357.591L290.444 361.09L293.461 365.892L299.358 372.409L303.746 384.208L304.226 385.1L307.037 411.785L309.231 422.007L312.933 425.094L319.446 433.806L326.714 448.006L329.319 461.795L328.839 469.684L326.92 476.201L323.834 480.179L327.331 487.794L329.319 484.981L337.136 483.884L343.512 485.805L349.82 490.881L348.517 497.878L345.912 501.583L359.624 505.699L368.194 512.078L369.908 516.88L376.01 520.791L380.81 529.297L383.21 528.68L385.883 533.276V538.078L383.895 542.88L379.781 542.4L377.999 547.476L385.883 551.386L388.283 545.075L400.487 546.378L409.195 549.877M297.849 326.104L302.649 331.592L310.533 330.7L314.921 335.09L320.818 336.6L321.846 340.99L329.319 348.193L332.61 347.781L336.107 344.283L340.632 343.391L349.82 348.81L358.801 354.093L364.012 346.89L369.497 350.8L381.907 349.291L386.706 347.301L382.387 345.38V342.911L389.586 341.402L397.676 333.993L401.379 334.404L406.795 341.402L409.195 341.882L413.171 340.304L416.668 342.499L414.68 345.38L418.588 346.409L425.581 344.489L427.981 345.792L426.061 351.692L420.165 361.09L423.181 364.108L426.061 373.987L434.357 379.886L443.75 382.287L448.07 385.786L456.366 387.501L459.04 387.089L465.347 388.187L474.741 385.1M474.741 385.1L479.951 373.301L485.436 370.008M474.741 385.1L481.048 390.108L478.237 394.978L476.729 390.108L474.329 394.498L467.747 398.888L468.433 403.279M409.195 549.877L413.171 542.88L421.673 541.096L422.084 536.5L418.588 533.276L420.165 527.376L427.158 525.798L436.962 516.88L436.757 511.392L438.265 506.59L433.054 499.799L438.265 497.878L444.847 493.282M409.195 549.877L416.668 552.69L427.158 560.579L434.769 574.299L435.866 577.797L442.859 588.293L450.469 587.676L471.244 602.973L476.729 611.686L477.552 618.271L479.951 621.77L488.933 625.474L498.326 633.569L507.513 643.379L515.604 654.08L517.318 652.091L528.219 656.893H534.116L538.504 658.882L546.388 666.291L552.902 677.953H556.878L558.798 675.209L566.477 671.093L576.967 669.035L599.456 677.953L598.153 674.523L600.964 672.465L610.768 671.779L614.265 673.837M490.441 365.892L490.03 359.581L485.025 361.501L482.145 366.509L485.436 370.008M490.441 365.892L488.933 369.802L485.436 370.008M617.145 479.493L621.464 491.293L626.949 502.68L633.943 513.588L640.73 521.202L647.244 528.199L650.535 530.6L662.122 538.489L666.236 544.389L678.577 554.679L690.232 558.589L692.289 561.196L695.032 569.977L697.089 570.594M617.145 479.493L600.964 485.393L598.564 490.401L588.76 492.802L585.675 491.979L582.384 499.799L578.887 501.788L577.79 505.081L569.974 507.002M468.433 403.279L475.632 405.886L480.637 402.387V408.287L478.649 411.099L483.928 413.294L488.042 411.305L494.829 414.186L503.537 423.584L510.53 422.898L516.015 419.194L515.604 429.004L519.512 434.903L520.403 440.597L525.408 448.692L524.722 457.404L529.796 462.206L530.208 471.604L532.196 476.681L536.995 481.003L543.989 481.483L551.805 488.892L552.902 491.979L559.278 488.892L562.5 493.899L561.678 497.878L558.181 499.182L557.29 502.2M468.433 403.279L463.359 413.294L459.862 415.695L462.536 420.086L455.063 427.083L458.354 427.495L459.04 431.885L463.839 433.806L464.25 440.186L468.844 437.785L470.832 441.283L460.548 446.703L454.652 447.183L453.966 452.396L449.167 455.483L446.561 461.795L447.658 468.38L451.566 470.301L448.55 484.09L450.058 488L448.55 490.881L444.847 493.282M557.29 502.2L563.597 500.691L569.974 507.002M557.29 502.2L556.878 507.002L554.204 512.902L546.388 515.577L542.892 514.891L540.492 517.498L533.019 517.978L531.305 523.192L522.803 527.788L517.523 532.59L518.415 536.98L513.41 538.078L508.61 536.088L507.513 543.086L501.823 547.476L496.338 545.487L493.732 544.801L495.241 541.576L489.824 536.98L479.951 531.698L479.128 525.181L476.729 523.192L475.632 515.989L468.433 512.902L458.354 516.88L449.167 509.677L452.458 503.092L448.755 500.279L444.847 493.282M569.974 507.002L574.293 511.598L573.882 516.88L570.591 519.899L557.29 519.281L553.382 525.181L556.193 531.698L553.793 538.078L558.181 541.096L556.878 548.299L560.101 549.877L562.5 554.885L571.071 564.077L574.979 564.695L570.385 567.576L569.974 571.074L564.489 572.378L552.285 567.987L546.8 574.985L545.086 575.876L547.005 584.383L552.902 585.275L569.494 593.575H570.591L577.379 598.171L576.487 606.472H580.875L589.583 609.971L591.982 612.783H596.165L602.061 607.775L607.957 609.285L610.768 613.675H615.156L624.138 616.693L628.938 620.672M697.089 570.594L707.373 575.396L717.657 576.974L721.771 580.884L731.37 585.275M697.089 570.594L695.717 578.277L690.232 584.794L688.176 589.185L677.891 605.992L675.834 607.295L673.092 608.873L670.349 600.572L664.179 596.594L663.493 597.897L656.637 593.095L652.523 597.074L645.255 604.483L649.232 609.696L641.827 615.596L638.742 615.184L633.257 620.192L628.938 620.672M614.265 673.837L619.544 671.779L624.55 665.605L624.961 662.175L623.041 652.091L631.543 645.78M614.265 673.837L624.138 684.127L630.035 693.731L630.857 698.533L635.245 700.591L639.359 707.451L643.13 714.311V723.915L647.038 724.601L647.724 719.113L657.528 722.543L659.036 719.113L665.55 717.741L672.406 723.915L682.005 729.403V732.833L679.262 734.205L674.463 741.065L670.349 742.437V747.239L682.691 741.751L688.861 742.437L695.032 738.321L700.517 737.635L707.373 733.519L712.172 736.263L719.714 745.181L731.37 765.075V769.191L725.199 772.621L724.514 783.597L732.741 787.027L736.169 790.457H744.397L753.996 798.003L758.795 804.177L764.966 808.979L771.136 809.665L781.421 798.689H788.277L791.705 801.433M731.37 585.275L743.026 584.794L757.424 586.372L771.822 582.874L786.22 582.393L808.16 578.277L817.759 580.198L821.187 584.794L823.929 594.673L820.501 599.886L817.073 601.396L810.217 608.873L801.989 613.881L799.247 621.77L801.989 630.07L807.474 635.49L812.274 637.891L837.642 647.769L852.726 654.08L860.267 656.893L865.067 659.431L886.321 664.919L891.121 666.977L906.89 670.407L920.602 676.581L927.459 680.697L934.315 688.243L938.429 689.615L946.656 696.475L953.512 698.533L961.054 699.905L971.339 703.335L980.937 708.823L990.536 710.881L991.222 713.625L996.021 712.939L999.449 717.741V723.229L1005.62 727.345L1018.65 732.833L1032.36 745.867L1038.53 753.413L1047.44 769.877L1045.39 777.423L1041.96 781.539L1039.22 794.573L1040.59 798.689L1038.53 808.979L1030.3 804.863H1024.13L1010.42 798.003L1002.88 788.399L1004.25 785.655L999.449 782.225L1002.19 779.481L1001.51 774.679L994.65 768.505L991.907 759.587L985.737 756.157H978.195L955.569 757.529L928.144 747.925L930.201 743.123L928.83 739.693H934.315L937.057 736.263H929.516L924.031 739.007L922.659 736.263H912.375L906.204 739.693L900.719 745.867L896.606 752.727M731.37 585.275L730.684 592.683L728.627 597.485L730.684 610.794L733.427 611.274L723.142 622.593L717.657 621.084L715.601 623.073L716.286 633.981L721.771 638.783M628.938 620.672L633.463 627.395L635.451 638.783L631.543 645.78M896.606 752.727L889.749 743.123L885.635 744.495L882.207 734.891L881.522 721.857L879.465 718.427L880.836 715.683L871.923 711.567L860.953 712.939L855.468 719.113L852.726 718.427L847.241 714.311L837.642 705.393L834.214 699.219L832.842 697.161L829.414 696.475L825.986 698.533L813.645 694.417L817.073 686.185L809.531 678.639L804.732 677.267L801.304 673.151L793.762 677.953H777.992L775.25 684.813M896.606 752.727L891.121 763.703L887.692 774.679L880.151 785.655M721.771 638.783L731.37 644.271L732.056 648.592L729.999 655.178L735.484 657.991L736.855 662.175L739.597 660.117L746.454 662.861V669.721L743.711 675.895L750.567 680.697L761.537 680.011L766.337 682.755L775.25 684.813M721.771 638.783L717.657 642.281L708.059 646.191L703.259 644.682L699.831 649.073L693.661 649.69L688.861 653.669L680.634 652.091L675.834 648.592L668.978 646.672L654.443 641.389L645.255 641.87L642.65 647.083L645.255 654.08H639.153L631.543 645.78M775.25 684.813L777.307 689.615L774.564 697.847L768.394 703.335L759.481 704.021L760.166 710.881L758.109 713.625L762.223 723.915L767.708 729.403L772.507 731.461L769.079 737.635L775.936 742.437L777.992 750.669L783.477 757.529L794.447 763.017L795.819 769.191L801.989 774.679V780.853L795.133 787.713V791.143L791.705 797.317V801.433M791.705 801.433L799.932 811.037L801.989 815.153M880.151 785.655L877.408 790.457L876.722 795.259L880.836 804.177L873.294 814.467L869.866 823.385V826.815L873.98 832.989L872.609 837.105L876.037 840.535L883.579 843.965L894.549 843.279L901.405 846.023L904.147 850.139L914.432 855.627L920.602 857.685L924.031 861.801L933.629 865.231L930.887 873.463L931.572 882.381L934.315 887.869L933.629 898.159L937.743 907.763L941.857 908.449L939.114 911.879L939.8 916.681L934.315 924.913L930.887 922.169L926.773 924.227L922.659 920.797L914.432 922.855L900.034 929.715L890.435 937.947L887.007 942.063L884.264 949.609L889.749 972.247L890.435 979.107L889.749 984.595L881.522 993.513L870.552 1000.37L867.124 1003.12L856.154 1019.58L853.411 1036.05L850.669 1042.91L842.441 1047.02L836.956 1045.65L820.501 1048.39L811.588 1043.59L808.16 1038.79L810.217 1034.67L806.789 1029.19L808.16 1023.01L806.103 1014.09L807.474 1012.04L819.816 1007.23L828.729 983.223L829.414 979.107L827.357 970.875L821.187 965.387L821.872 961.957L835.585 953.039L845.869 952.353L851.354 948.923L854.097 941.377L853.411 931.087L852.04 927.657L847.241 924.913L841.07 914.623L839.699 911.879L832.842 880.323L828.729 870.033L821.872 861.801L815.702 856.313L812.274 846.023L809.531 841.221L806.789 830.245L804.732 826.129L805.417 821.327L801.989 815.153M880.151 785.655L860.267 787.027L858.896 795.259L858.211 802.119L855.468 809.665L856.154 813.781L851.354 809.665H847.926L842.441 813.095L830.786 815.153L825.986 811.037L825.301 806.235L821.872 806.921L819.816 804.177L815.702 806.921L810.902 804.863L804.046 810.351L801.989 815.153M413.171 333.581L411.869 335.982L417.079 332.003L413.171 333.581ZM470.832 381.807L469.735 379.886L465.347 379.68L467.336 384.208L470.832 381.807ZM488.933 404.308L487.425 400.809L485.848 404.308L487.836 405.405L488.933 404.308ZM270.356 474.691L267.956 479.082L264.459 476.681L267.956 471.193L270.356 474.691ZM320.338 500.691L319.446 505.081L316.841 506.59L320.338 511.598H315.95L311.15 506.59L303.129 510.089H295.861L292.433 507.688L292.844 502.68L296.752 500.691L306.145 502.2L306.625 499.593L313.55 501.583L317.527 494.38L321.023 497.192L320.338 500.691ZM365.109 556.188L363.601 557.697L358.116 552.278L360.104 548.985L365.109 556.188ZM222.773 690.301L226.681 690.987L227.093 688.243L236.486 697.161V701.963L238.885 695.789L247.661 698.533L245.262 701.963L242.862 710.881L246.29 708.823L248.073 711.567L251.981 710.195L255.066 713.625L249.581 712.939L246.77 721.171L242.862 720.485L248.279 723.915L254.175 721.857L251.981 725.287L261.854 730.775L255.958 735.577L259.866 740.379L263.979 752.041L264.459 758.901L271.247 768.505L269.67 773.993L263.979 784.969L260.963 786.341L253.558 798.689V802.805L256.163 812.409L262.951 819.269L259.866 830.245L260.071 846.023L258.083 850.139L258.563 861.801L255.958 871.405V881.695L254.175 887.183L255.958 889.241L253.078 899.531L252.187 907.077L255.066 909.821L250.267 914.623L248.758 921.483L250.061 923.541L248.073 929.715L244.782 931.087H237.788L228.601 922.855L224.076 920.111H215.369L212.626 924.227L209.884 922.855L201.245 915.309L199.668 917.367L204.741 920.797L199.256 929.029V933.145L201.656 939.319L199.256 946.865L184.31 959.899L179.99 956.469L171.763 953.725L165.044 958.527L161.547 957.155L162.301 950.295H159.559L157.57 938.633L152.908 937.947L150.097 933.145L147.355 931.773L146.6 926.285L143.858 924.913L140.704 918.739L145.778 912.565L145.023 906.391L141.115 901.589L143.858 897.473L143.446 893.357L142.692 890.613L149.343 878.265L148.177 868.661L147.766 856.313L154.485 863.859H157.228L153.251 859.743L156.816 854.255V843.279L149.754 839.163L147.355 843.279L143.858 840.535L143.446 831.617L144.612 826.129L142.692 824.071L149.343 822.699L152.085 816.525L150.097 812.409L149.754 804.177L150.92 798.689L149.754 792.515L143.035 788.399L143.446 780.853L141.458 771.935L138.304 769.877L136.796 761.645L132.819 759.587L128.088 762.331V757.529L124.592 758.215L123.426 763.017L121.438 756.157L124.592 754.099L126.58 748.611L121.027 743.809L128.088 728.031V722.543L125.346 721.171L127.334 715.683L130.488 717.741L130.077 723.229L136.796 730.089L155.239 732.833L162.301 730.089L165.866 724.601L172.174 721.857L176.836 723.229L181.156 719.799L187.052 710.195L190.206 708.823L198.091 698.533L205.975 697.161L211.872 691.673L212.626 684.813L218.111 682.755L221.196 685.499L222.773 690.301ZM235.869 687.557L230.589 688.243L230.384 686.185L234.497 682.755L235.869 687.557ZM238.885 690.301L236.28 691.673L238.268 684.813L239.777 687.557L238.885 690.301ZM131.654 707.451L131.242 713.625L128.088 712.939L129.665 708.137L133.985 704.021V700.591L138.304 698.533L138.716 700.591V705.393L131.654 707.451ZM636.342 733.519L630.446 736.263L626.949 734.205L627.566 728.717L637.234 731.461L636.342 733.519ZM134.808 922.855V933.145H130.077L127.334 926.971L129.323 924.227L134.808 922.855ZM146.6 948.923L144.201 949.609L138.716 937.947L139.881 931.773L147.355 933.145L148.931 938.633L146.6 948.923ZM734.112 978.421L732.741 981.165L726.57 978.421L732.056 977.049L734.112 978.421ZM743.711 988.025L743.026 991.455L736.855 988.711L737.541 984.595L742.34 983.909L743.711 988.025ZM745.768 996.943L747.139 1001.06L742.34 998.315V993.513L745.768 996.943ZM801.304 1017.52L795.133 1031.24L786.22 1044.28L775.25 1064.86L770.451 1072.4L771.822 1075.83L767.708 1093.67L762.223 1102.59L762.909 1118.37L764.966 1122.48L775.25 1125.91L778.678 1128.66L772.507 1135.52L779.364 1145.12L784.849 1147.18V1151.29L788.277 1156.78L782.106 1158.84V1161.58L773.879 1166.39L767.708 1183.54L771.822 1195.88L770.451 1199.31H766.337L759.481 1195.2L757.424 1196.57L747.825 1192.45L738.912 1196.57L729.313 1194.51L727.256 1191.08L710.801 1187.65L701.202 1170.5L695.032 1164.33L689.547 1159.53L674.463 1151.98L666.236 1152.67L657.528 1155.41L653.14 1154.72L647.244 1150.61L639.839 1148.55L633.257 1145.12L622.15 1136.2L611.248 1133.46L594.176 1123.17L591.982 1119.05L584.166 1112.88L572.579 1111.51L570.591 1112.88L565.174 1106.02L558.181 1103.96L547.485 1104.65L536.104 1106.02L529.796 1097.79L523.214 1095.73L519.923 1092.98L513.615 1078.58L516.906 1076.52L518.003 1069.66L516.906 1066.23L519.923 1054.57L526.299 1047.02L529.316 1048.39L534.116 1042.22L539.601 1040.16L539.189 1034.67L542.892 1033.3L548.788 1045.65L556.193 1051.14L563.186 1049.08L571.894 1042.91L569.974 1037.42L573.882 1031.24L583.686 1032.62L593.559 1027.13L598.976 1032.62L600.964 1040.16L612.345 1038.79L615.568 1044.96L630.857 1053.2L638.331 1053.88L648.135 1049.08L651.632 1047.02L659.036 1043.59L667.607 1047.02L673.777 1045.65L682.691 1046.34L692.975 1044.28L697.089 1041.53H703.945L715.601 1036.73L723.828 1027.13L729.999 1026.44L739.597 1023.01L745.082 1025.07L752.624 1026.44L756.738 1028.5L764.966 1024.38L769.765 1014.78L770.451 1017.52L775.25 1018.21L784.163 1014.78L794.447 1005.86H798.561L807.474 1007.92L801.304 1012.72V1017.52ZM507.719 1064.86L505.525 1066.92L499.217 1063.49H503.537L507.719 1064.86ZM482.844 1196.29L480.652 1201.76L476.711 1201.2L472.135 1198.63L470.832 1194.51H476.043L478.031 1193.14L482.844 1196.29ZM541.589 1346.8L540.903 1347.49L532.607 1344.75H542L541.589 1346.8Z" stroke="#202020" stroke-opacity="0.7" stroke-width="2" stroke-linecap="round" stroke-linejoin="round"/>
</g>
<defs>
<clipPath id="clip0_11_474">
<rect width="1048" height="1203" fill="white"/>
</clipPath>
</defs>
</svg>
