<svg xmlns="http://www.w3.org/2000/svg" viewBox="0.0 0.0 1046.0 1201.0" shape-rendering="crispEdges">
  <circle cx="597.14" cy="568.85" r="3" fill="#e41a1c"/>
  <circle cx="631.88" cy="489.00" r="3" fill="#e41a1c"/>
  <circle cx="638.09" cy="526.78" r="3" fill="#e41a1c"/>
  <circle cx="788.95" cy="715.04" r="3" fill="#e41a1c"/>
  <circle cx="828.67" cy="892.01" r="3" fill="#e41a1c"/>
  <circle cx="824.68" cy="857.11" r="3" fill="#e41a1c"/>
  <circle cx="846.74" cy="936.59" r="3" fill="#e41a1c"/>
  <circle cx="777.03" cy="980.27" r="3" fill="#e41a1c"/>
  <circle cx="668.79" cy="670.93" r="3" fill="#e41a1c"/>
  <circle cx="665.59" cy="684.43" r="3" fill="#e41a1c"/>
  <circle cx="656.53" cy="683.13" r="3" fill="#e41a1c"/>
  <circle cx="649.71" cy="694.73" r="3" fill="#e41a1c"/>
  <circle cx="677.98" cy="714.21" r="3" fill="#e41a1c"/>
  <circle cx="671.26" cy="694.25" r="3" fill="#e41a1c"/>
  <circle cx="659.80" cy="696.13" r="3" fill="#e41a1c"/>
  <circle cx="661.75" cy="692.98" r="3" fill="#e41a1c"/>
  <circle cx="710.90" cy="715.56" r="3" fill="#e41a1c"/>
  <circle cx="707.94" cy="686.53" r="3" fill="#e41a1c"/>
  <circle cx="707.67" cy="666.33" r="3" fill="#e41a1c"/>
  <circle cx="663.94" cy="694.42" r="3" fill="#e41a1c"/>
  <circle cx="661.49" cy="693.04" r="3" fill="#e41a1c"/>
  <circle cx="296.34" cy="255.39" r="3" fill="#e41a1c"/>
  <circle cx="325.19" cy="276.94" r="3" fill="#e41a1c"/>
  <circle cx="372.75" cy="294.08" r="3" fill="#e41a1c"/>
  <circle cx="427.70" cy="312.84" r="3" fill="#e41a1c"/>
  <circle cx="497.95" cy="322.62" r="3" fill="#e41a1c"/>
  <circle cx="472.67" cy="335.49" r="3" fill="#e41a1c"/>
  <circle cx="484.29" cy="343.99" r="3" fill="#e41a1c"/>
  <circle cx="503.66" cy="351.47" r="3" fill="#e41a1c"/>
  <circle cx="530.22" cy="361.04" r="3" fill="#e41a1c"/>
  <circle cx="397.65" cy="299.17" r="3" fill="#e41a1c"/>
  <circle cx="431.38" cy="314.26" r="3" fill="#e41a1c"/>
  <circle cx="458.21" cy="281.95" r="3" fill="#e41a1c"/>
  <circle cx="427.70" cy="312.84" r="3" fill="#e41a1c"/>
  <circle cx="551.55" cy="165.83" r="3" fill="#e41a1c"/>
  <circle cx="581.78" cy="148.54" r="3" fill="#e41a1c"/>
  <circle cx="626.46" cy="194.75" r="3" fill="#e41a1c"/>
  <circle cx="520.00" cy="584.75" r="3" fill="#e41a1c"/>
  <circle cx="536.51" cy="598.46" r="3" fill="#e41a1c"/>
  <circle cx="506.92" cy="602.68" r="3" fill="#e41a1c"/>
  <circle cx="520.75" cy="593.06" r="3" fill="#e41a1c"/>
  <circle cx="555.80" cy="630.68" r="3" fill="#e41a1c"/>
  <circle cx="590.52" cy="601.68" r="3" fill="#e41a1c"/>
  <circle cx="526.24" cy="582.68" r="3" fill="#e41a1c"/>
  <circle cx="516.05" cy="579.85" r="3" fill="#e41a1c"/>
  <circle cx="519.50" cy="588.06" r="3" fill="#e41a1c"/>
  <circle cx="523.28" cy="586.29" r="3" fill="#e41a1c"/>
  <circle cx="523.07" cy="582.77" r="3" fill="#e41a1c"/>
  <circle cx="161.63" cy="375.16" r="3" fill="#e41a1c"/>
  <circle cx="308.28" cy="353.77" r="3" fill="#e41a1c"/>
  <circle cx="200.20" cy="332.23" r="3" fill="#e41a1c"/>
  <circle cx="233.13" cy="322.43" r="3" fill="#e41a1c"/>
  <circle cx="239.32" cy="322.54" r="3" fill="#e41a1c"/>
  <circle cx="224.65" cy="192.51" r="3" fill="#e41a1c"/>
  <circle cx="233.39" cy="185.60" r="3" fill="#e41a1c"/>
  <circle cx="253.06" cy="184.11" r="3" fill="#e41a1c"/>
  <circle cx="259.42" cy="205.05" r="3" fill="#e41a1c"/>
  <circle cx="254.80" cy="210.31" r="3" fill="#e41a1c"/>
  <circle cx="259.01" cy="212.36" r="3" fill="#e41a1c"/>
  <circle cx="248.93" cy="200.20" r="3" fill="#e41a1c"/>
  <circle cx="282.73" cy="229.91" r="3" fill="#e41a1c"/>
  <circle cx="257.16" cy="195.66" r="3" fill="#e41a1c"/>
  <circle cx="268.80" cy="223.67" r="3" fill="#e41a1c"/>
  <circle cx="270.06" cy="197.56" r="3" fill="#e41a1c"/>
  <circle cx="299.78" cy="184.71" r="3" fill="#e41a1c"/>
  <circle cx="301.86" cy="206.83" r="3" fill="#e41a1c"/>
  <circle cx="231.53" cy="226.89" r="3" fill="#e41a1c"/>
  <circle cx="242.56" cy="261.64" r="3" fill="#e41a1c"/>
  <circle cx="214.66" cy="167.79" r="3" fill="#e41a1c"/>
  <circle cx="245.06" cy="177.71" r="3" fill="#e41a1c"/>
  <circle cx="274.64" cy="172.07" r="3" fill="#e41a1c"/>
  <circle cx="292.77" cy="189.40" r="3" fill="#e41a1c"/>
  <circle cx="340.48" cy="202.75" r="3" fill="#e41a1c"/>
  <circle cx="384.17" cy="245.96" r="3" fill="#e41a1c"/>
  <circle cx="326.42" cy="247.55" r="3" fill="#e41a1c"/>
  <circle cx="256.49" cy="207.72" r="3" fill="#e41a1c"/>
  <circle cx="254.28" cy="215.73" r="3" fill="#e41a1c"/>
  <circle cx="250.60" cy="212.15" r="3" fill="#e41a1c"/>
  <circle cx="251.31" cy="206.74" r="3" fill="#e41a1c"/>
  <circle cx="253.37" cy="240.60" r="3" fill="#e41a1c"/>
  <circle cx="257.14" cy="213.00" r="3" fill="#e41a1c"/>
  <circle cx="580.08" cy="395.41" r="3" fill="#e41a1c"/>
  <circle cx="600.18" cy="439.20" r="3" fill="#e41a1c"/>
  <circle cx="565.03" cy="382.46" r="3" fill="#e41a1c"/>
  <circle cx="694.19" cy="622.43" r="3" fill="#e41a1c"/>
  <circle cx="427.17" cy="104.53" r="3" fill="#e41a1c"/>
  <circle cx="414.46" cy="85.89" r="3" fill="#e41a1c"/>
  <circle cx="413.03" cy="150.77" r="3" fill="#e41a1c"/>
  <circle cx="131.04" cy="254.09" r="3" fill="#e41a1c"/>
  <circle cx="176.82" cy="270.31" r="3" fill="#e41a1c"/>
  <circle cx="152.45" cy="241.02" r="3" fill="#e41a1c"/>
  <circle cx="150.64" cy="212.30" r="3" fill="#e41a1c"/>
  <circle cx="165.95" cy="204.27" r="3" fill="#e41a1c"/>
  <circle cx="210.86" cy="214.86" r="3" fill="#e41a1c"/>
  <circle cx="123.64" cy="325.26" r="3" fill="#e41a1c"/>
  <circle cx="210.84" cy="269.92" r="3" fill="#e41a1c"/>
  <circle cx="134.69" cy="257.31" r="3" fill="#e41a1c"/>
  <circle cx="795.72" cy="651.50" r="3" fill="#e41a1c"/>
  <circle cx="872.79" cy="669.29" r="3" fill="#e41a1c"/>
  <circle cx="895.20" cy="700.35" r="3" fill="#e41a1c"/>
  <circle cx="875.97" cy="668.62" r="3" fill="#e41a1c"/>
  <circle cx="867.29" cy="666.67" r="3" fill="#e41a1c"/>
  <circle cx="879.90" cy="717.33" r="3" fill="#e41a1c"/>
  <circle cx="874.61" cy="671.04" r="3" fill="#e41a1c"/>
  <circle cx="958.60" cy="718.23" r="3" fill="#e41a1c"/>
  <circle cx="978.35" cy="748.64" r="3" fill="#e41a1c"/>
  <circle cx="905.02" cy="734.83" r="3" fill="#e41a1c"/>
  <circle cx="825.03" cy="646.06" r="3" fill="#e41a1c"/>
  <circle cx="766.36" cy="631.24" r="3" fill="#e41a1c"/>
  <circle cx="279.36" cy="687.95" r="3" fill="#e41a1c"/>
  <circle cx="250.06" cy="863.04" r="3" fill="#e41a1c"/>
  <circle cx="205.46" cy="707.91" r="3" fill="#e41a1c"/>
  <circle cx="735.84" cy="1031.99" r="3" fill="#e41a1c"/>
  <circle cx="674.07" cy="1054.24" r="3" fill="#e41a1c"/>
  <circle cx="705.24" cy="1113.49" r="3" fill="#e41a1c"/>
  <circle cx="746.90" cy="1088.93" r="3" fill="#e41a1c"/>
  <circle cx="527.00" cy="989.21" r="3" fill="#e41a1c"/>
  <circle cx="733.85" cy="1040.06" r="3" fill="#e41a1c"/>
  <circle cx="727.52" cy="1043.16" r="3" fill="#e41a1c"/>
  <circle cx="767.50" cy="974.84" r="3" fill="#e41a1c"/>
  <circle cx="588.62" cy="976.77" r="3" fill="#e41a1c"/>
  <circle cx="591.88" cy="981.16" r="3" fill="#e41a1c"/>
  <circle cx="330.21" cy="357.22" r="3" fill="#e41a1c"/>
  <circle cx="364.59" cy="382.04" r="3" fill="#e41a1c"/>
  <circle cx="377.43" cy="375.63" r="3" fill="#e41a1c"/>
  <circle cx="407.44" cy="376.97" r="3" fill="#e41a1c"/>
  <circle cx="373.49" cy="400.64" r="3" fill="#e41a1c"/>
  <circle cx="348.18" cy="412.49" r="3" fill="#e41a1c"/>
  <circle cx="471.94" cy="421.79" r="3" fill="#e41a1c"/>
  <circle cx="412.24" cy="493.24" r="3" fill="#e41a1c"/>
  <circle cx="424.18" cy="391.14" r="3" fill="#e41a1c"/>
  <circle cx="396.60" cy="394.44" r="3" fill="#e41a1c"/>
  <circle cx="353.68" cy="394.58" r="3" fill="#e41a1c"/>
  <circle cx="428.48" cy="434.81" r="3" fill="#e41a1c"/>
  <circle cx="422.34" cy="385.70" r="3" fill="#e41a1c"/>
  <circle cx="515.21" cy="482.77" r="3" fill="#e41a1c"/>
  <circle cx="535.46" cy="516.32" r="3" fill="#e41a1c"/>
  <circle cx="476.22" cy="154.26" r="3" fill="#e41a1c"/>
  <circle cx="503.69" cy="192.25" r="3" fill="#e41a1c"/>
  <circle cx="506.13" cy="169.05" r="3" fill="#e41a1c"/>
  <circle cx="500.06" cy="207.38" r="3" fill="#e41a1c"/>
  <circle cx="491.91" cy="208.76" r="3" fill="#e41a1c"/>
  <circle cx="465.60" cy="193.50" r="3" fill="#e41a1c"/>
  <circle cx="460.47" cy="239.55" r="3" fill="#e41a1c"/>
  <circle cx="435.60" cy="185.16" r="3" fill="#e41a1c"/>
  <circle cx="446.41" cy="203.01" r="3" fill="#e41a1c"/>
  <circle cx="388.36" cy="225.30" r="3" fill="#e41a1c"/>
  <circle cx="473.81" cy="219.00" r="3" fill="#e41a1c"/>
  <circle cx="401.14" cy="213.91" r="3" fill="#e41a1c"/>
</svg>