<svg xmlns="http://www.w3.org/2000/svg" viewBox="0.0 0.0 1048.0 1203.0" shape-rendering="crispEdges">
  <circle cx="592.92" cy="536.86" r="3" fill="#e41a1c"/>
  <circle cx="598.28" cy="569.80" r="3" fill="#e41a1c"/>
  <circle cx="633.08" cy="489.81" r="3" fill="#e41a1c"/>
  <circle cx="660.77" cy="526.81" r="3" fill="#e41a1c"/>
  <circle cx="639.31" cy="527.66" r="3" fill="#e41a1c"/>
  <circle cx="658.21" cy="537.50" r="3" fill="#e41a1c"/>
  <circle cx="702.21" cy="562.99" r="3" fill="#e41a1c"/>
  <circle cx="854.88" cy="714.86" r="3" fill="#e41a1c"/>
  <circle cx="790.46" cy="716.24" r="3" fill="#e41a1c"/>
  <circle cx="776.68" cy="680.18" r="3" fill="#e41a1c"/>
  <circle cx="792.01" cy="746.83" r="3" fill="#e41a1c"/>
  <circle cx="786.91" cy="771.09" r="3" fill="#e41a1c"/>
  <circle cx="823.75" cy="803.53" r="3" fill="#e41a1c"/>
  <circle cx="848.21" cy="827.33" r="3" fill="#e41a1c"/>
  <circle cx="896.47" cy="880.82" r="3" fill="#e41a1c"/>
  <circle cx="830.25" cy="893.49" r="3" fill="#e41a1c"/>
  <circle cx="814.17" cy="923.11" r="3" fill="#e41a1c"/>
  <circle cx="849.90" cy="921.49" r="3" fill="#e41a1c"/>
  <circle cx="826.26" cy="858.53" r="3" fill="#e41a1c"/>
  <circle cx="848.36" cy="938.15" r="3" fill="#e41a1c"/>
  <circle cx="778.52" cy="981.90" r="3" fill="#e41a1c"/>
  <circle cx="662.04" cy="684.80" r="3" fill="#e41a1c"/>
  <circle cx="670.06" cy="672.05" r="3" fill="#e41a1c"/>
  <circle cx="666.86" cy="685.57" r="3" fill="#e41a1c"/>
  <circle cx="657.78" cy="684.27" r="3" fill="#e41a1c"/>
  <circle cx="723.60" cy="719.90" r="3" fill="#e41a1c"/>
  <circle cx="746.73" cy="760.87" r="3" fill="#e41a1c"/>
  <circle cx="650.95" cy="695.88" r="3" fill="#e41a1c"/>
  <circle cx="679.27" cy="715.40" r="3" fill="#e41a1c"/>
  <circle cx="670.09" cy="676.89" r="3" fill="#e41a1c"/>
  <circle cx="672.55" cy="695.41" r="3" fill="#e41a1c"/>
  <circle cx="661.06" cy="697.29" r="3" fill="#e41a1c"/>
  <circle cx="663.02" cy="694.13" r="3" fill="#e41a1c"/>
  <circle cx="712.25" cy="716.75" r="3" fill="#e41a1c"/>
  <circle cx="709.30" cy="687.67" r="3" fill="#e41a1c"/>
  <circle cx="709.03" cy="667.44" r="3" fill="#e41a1c"/>
  <circle cx="671.82" cy="670.86" r="3" fill="#e41a1c"/>
  <circle cx="665.21" cy="695.57" r="3" fill="#e41a1c"/>
  <circle cx="662.76" cy="694.19" r="3" fill="#e41a1c"/>
  <circle cx="296.91" cy="255.82" r="3" fill="#e41a1c"/>
  <circle cx="277.43" cy="255.87" r="3" fill="#e41a1c"/>
  <circle cx="325.81" cy="277.40" r="3" fill="#e41a1c"/>
  <circle cx="358.72" cy="292.24" r="3" fill="#e41a1c"/>
  <circle cx="355.07" cy="320.53" r="3" fill="#e41a1c"/>
  <circle cx="373.46" cy="294.57" r="3" fill="#e41a1c"/>
  <circle cx="393.15" cy="283.88" r="3" fill="#e41a1c"/>
  <circle cx="408.27" cy="273.81" r="3" fill="#e41a1c"/>
  <circle cx="403.60" cy="315.72" r="3" fill="#e41a1c"/>
  <circle cx="458.62" cy="328.69" r="3" fill="#e41a1c"/>
  <circle cx="428.52" cy="313.36" r="3" fill="#e41a1c"/>
  <circle cx="400.69" cy="349.11" r="3" fill="#e41a1c"/>
  <circle cx="426.45" cy="290.41" r="3" fill="#e41a1c"/>
  <circle cx="498.90" cy="323.16" r="3" fill="#e41a1c"/>
  <circle cx="473.58" cy="336.05" r="3" fill="#e41a1c"/>
  <circle cx="485.22" cy="344.56" r="3" fill="#e41a1c"/>
  <circle cx="504.63" cy="352.05" r="3" fill="#e41a1c"/>
  <circle cx="531.24" cy="361.64" r="3" fill="#e41a1c"/>
  <circle cx="386.51" cy="310.35" r="3" fill="#e41a1c"/>
  <circle cx="543.00" cy="371.06" r="3" fill="#e41a1c"/>
  <circle cx="349.79" cy="284.03" r="3" fill="#e41a1c"/>
  <circle cx="498.58" cy="322.22" r="3" fill="#e41a1c"/>
  <circle cx="351.69" cy="268.68" r="3" fill="#e41a1c"/>
  <circle cx="398.41" cy="299.67" r="3" fill="#e41a1c"/>
  <circle cx="432.20" cy="314.78" r="3" fill="#e41a1c"/>
  <circle cx="459.08" cy="282.42" r="3" fill="#e41a1c"/>
  <circle cx="349.44" cy="281.74" r="3" fill="#e41a1c"/>
  <circle cx="393.79" cy="282.64" r="3" fill="#e41a1c"/>
  <circle cx="396.84" cy="299.86" r="3" fill="#e41a1c"/>
  <circle cx="535.92" cy="366.51" r="3" fill="#e41a1c"/>
  <circle cx="426.45" cy="290.41" r="3" fill="#e41a1c"/>
  <circle cx="498.90" cy="323.16" r="3" fill="#e41a1c"/>
  <circle cx="478.52" cy="325.83" r="3" fill="#e41a1c"/>
  <circle cx="428.52" cy="313.36" r="3" fill="#e41a1c"/>
  <circle cx="539.71" cy="368.71" r="3" fill="#e41a1c"/>
  <circle cx="351.69" cy="268.68" r="3" fill="#e41a1c"/>
  <circle cx="459.08" cy="282.42" r="3" fill="#e41a1c"/>
  <circle cx="418.79" cy="299.96" r="3" fill="#e41a1c"/>
  <circle cx="298.24" cy="255.57" r="3" fill="#e41a1c"/>
  <circle cx="377.94" cy="303.44" r="3" fill="#e41a1c"/>
  <circle cx="536.41" cy="160.15" r="3" fill="#e41a1c"/>
  <circle cx="552.60" cy="166.11" r="3" fill="#e41a1c"/>
  <circle cx="606.16" cy="176.18" r="3" fill="#e41a1c"/>
  <circle cx="564.52" cy="181.04" r="3" fill="#e41a1c"/>
  <circle cx="591.48" cy="166.44" r="3" fill="#e41a1c"/>
  <circle cx="565.03" cy="140.72" r="3" fill="#e41a1c"/>
  <circle cx="564.86" cy="114.51" r="3" fill="#e41a1c"/>
  <circle cx="582.90" cy="148.79" r="3" fill="#e41a1c"/>
  <circle cx="627.66" cy="195.08" r="3" fill="#e41a1c"/>
  <circle cx="556.72" cy="530.96" r="3" fill="#e41a1c"/>
  <circle cx="521.00" cy="585.73" r="3" fill="#e41a1c"/>
  <circle cx="534.91" cy="631.63" r="3" fill="#e41a1c"/>
  <circle cx="468.37" cy="564.99" r="3" fill="#e41a1c"/>
  <circle cx="537.53" cy="599.46" r="3" fill="#e41a1c"/>
  <circle cx="548.38" cy="579.47" r="3" fill="#e41a1c"/>
  <circle cx="507.89" cy="603.68" r="3" fill="#e41a1c"/>
  <circle cx="521.75" cy="594.05" r="3" fill="#e41a1c"/>
  <circle cx="556.86" cy="631.73" r="3" fill="#e41a1c"/>
  <circle cx="596.28" cy="641.35" r="3" fill="#e41a1c"/>
  <circle cx="614.17" cy="652.70" r="3" fill="#e41a1c"/>
  <circle cx="591.65" cy="602.68" r="3" fill="#e41a1c"/>
  <circle cx="527.25" cy="583.65" r="3" fill="#e41a1c"/>
  <circle cx="493.44" cy="533.90" r="3" fill="#e41a1c"/>
  <circle cx="517.04" cy="580.81" r="3" fill="#e41a1c"/>
  <circle cx="535.94" cy="609.09" r="3" fill="#e41a1c"/>
  <circle cx="531.22" cy="589.09" r="3" fill="#e41a1c"/>
  <circle cx="520.50" cy="589.04" r="3" fill="#e41a1c"/>
  <circle cx="524.28" cy="587.27" r="3" fill="#e41a1c"/>
  <circle cx="524.98" cy="585.13" r="3" fill="#e41a1c"/>
  <circle cx="507.72" cy="603.64" r="3" fill="#e41a1c"/>
  <circle cx="537.33" cy="580.08" r="3" fill="#e41a1c"/>
  <circle cx="517.10" cy="583.70" r="3" fill="#e41a1c"/>
  <circle cx="527.95" cy="583.75" r="3" fill="#e41a1c"/>
  <circle cx="524.06" cy="583.87" r="3" fill="#e41a1c"/>
  <circle cx="524.07" cy="583.74" r="3" fill="#e41a1c"/>
  <circle cx="538.23" cy="604.21" r="3" fill="#e41a1c"/>
  <circle cx="161.93" cy="375.78" r="3" fill="#e41a1c"/>
  <circle cx="237.22" cy="324.49" r="3" fill="#e41a1c"/>
  <circle cx="270.00" cy="333.22" r="3" fill="#e41a1c"/>
  <circle cx="237.25" cy="322.82" r="3" fill="#e41a1c"/>
  <circle cx="221.33" cy="321.14" r="3" fill="#e41a1c"/>
  <circle cx="308.87" cy="354.36" r="3" fill="#e41a1c"/>
  <circle cx="200.58" cy="332.78" r="3" fill="#e41a1c"/>
  <circle cx="233.58" cy="322.97" r="3" fill="#e41a1c"/>
  <circle cx="239.78" cy="323.08" r="3" fill="#e41a1c"/>
  <circle cx="240.89" cy="325.20" r="3" fill="#e41a1c"/>
  <circle cx="224.64" cy="193.02" r="3" fill="#e41a1c"/>
  <circle cx="225.08" cy="192.83" r="3" fill="#e41a1c"/>
  <circle cx="233.84" cy="185.91" r="3" fill="#e41a1c"/>
  <circle cx="253.54" cy="184.41" r="3" fill="#e41a1c"/>
  <circle cx="276.30" cy="188.53" r="3" fill="#e41a1c"/>
  <circle cx="336.75" cy="134.40" r="3" fill="#e41a1c"/>
  <circle cx="259.92" cy="205.39" r="3" fill="#e41a1c"/>
  <circle cx="255.29" cy="210.66" r="3" fill="#e41a1c"/>
  <circle cx="259.51" cy="212.71" r="3" fill="#e41a1c"/>
  <circle cx="249.41" cy="200.53" r="3" fill="#e41a1c"/>
  <circle cx="283.27" cy="230.29" r="3" fill="#e41a1c"/>
  <circle cx="257.66" cy="195.99" r="3" fill="#e41a1c"/>
  <circle cx="261.55" cy="191.38" r="3" fill="#e41a1c"/>
  <circle cx="269.32" cy="224.04" r="3" fill="#e41a1c"/>
  <circle cx="244.62" cy="205.61" r="3" fill="#e41a1c"/>
  <circle cx="233.27" cy="212.24" r="3" fill="#e41a1c"/>
  <circle cx="270.57" cy="197.89" r="3" fill="#e41a1c"/>
  <circle cx="268.30" cy="206.79" r="3" fill="#e41a1c"/>
  <circle cx="291.09" cy="207.93" r="3" fill="#e41a1c"/>
  <circle cx="300.36" cy="185.02" r="3" fill="#e41a1c"/>
  <circle cx="302.43" cy="207.17" r="3" fill="#e41a1c"/>
  <circle cx="299.74" cy="190.05" r="3" fill="#e41a1c"/>
  <circle cx="317.35" cy="205.06" r="3" fill="#e41a1c"/>
  <circle cx="364.87" cy="212.12" r="3" fill="#e41a1c"/>
  <circle cx="357.98" cy="199.68" r="3" fill="#e41a1c"/>
  <circle cx="334.31" cy="224.11" r="3" fill="#e41a1c"/>
  <circle cx="231.98" cy="227.27" r="3" fill="#e41a1c"/>
  <circle cx="243.02" cy="262.07" r="3" fill="#e41a1c"/>
  <circle cx="296.75" cy="224.43" r="3" fill="#e41a1c"/>
  <circle cx="355.64" cy="238.13" r="3" fill="#e41a1c"/>
  <circle cx="412.51" cy="257.74" r="3" fill="#e41a1c"/>
  <circle cx="342.87" cy="164.70" r="3" fill="#e41a1c"/>
  <circle cx="232.79" cy="200.45" r="3" fill="#e41a1c"/>
  <circle cx="215.07" cy="168.06" r="3" fill="#e41a1c"/>
  <circle cx="330.09" cy="159.55" r="3" fill="#e41a1c"/>
  <circle cx="265.07" cy="253.56" r="3" fill="#e41a1c"/>
  <circle cx="228.43" cy="176.20" r="3" fill="#e41a1c"/>
  <circle cx="245.53" cy="178.00" r="3" fill="#e41a1c"/>
  <circle cx="275.17" cy="172.36" r="3" fill="#e41a1c"/>
  <circle cx="293.33" cy="189.71" r="3" fill="#e41a1c"/>
  <circle cx="341.13" cy="203.09" r="3" fill="#e41a1c"/>
  <circle cx="384.90" cy="246.37" r="3" fill="#e41a1c"/>
  <circle cx="327.05" cy="247.96" r="3" fill="#e41a1c"/>
  <circle cx="256.98" cy="208.06" r="3" fill="#e41a1c"/>
  <circle cx="254.76" cy="216.09" r="3" fill="#e41a1c"/>
  <circle cx="251.08" cy="212.50" r="3" fill="#e41a1c"/>
  <circle cx="251.79" cy="207.08" r="3" fill="#e41a1c"/>
  <circle cx="253.85" cy="241.00" r="3" fill="#e41a1c"/>
  <circle cx="257.63" cy="213.35" r="3" fill="#e41a1c"/>
  <circle cx="262.62" cy="198.66" r="3" fill="#e41a1c"/>
  <circle cx="534.71" cy="393.95" r="3" fill="#e41a1c"/>
  <circle cx="581.18" cy="396.07" r="3" fill="#e41a1c"/>
  <circle cx="582.34" cy="415.29" r="3" fill="#e41a1c"/>
  <circle cx="556.71" cy="435.07" r="3" fill="#e41a1c"/>
  <circle cx="620.35" cy="438.49" r="3" fill="#e41a1c"/>
  <circle cx="601.32" cy="439.93" r="3" fill="#e41a1c"/>
  <circle cx="629.74" cy="455.28" r="3" fill="#e41a1c"/>
  <circle cx="635.11" cy="476.24" r="3" fill="#e41a1c"/>
  <circle cx="614.12" cy="486.36" r="3" fill="#e41a1c"/>
  <circle cx="604.59" cy="408.82" r="3" fill="#e41a1c"/>
  <circle cx="534.71" cy="393.95" r="3" fill="#e41a1c"/>
  <circle cx="566.11" cy="383.10" r="3" fill="#e41a1c"/>
  <circle cx="607.17" cy="406.26" r="3" fill="#e41a1c"/>
  <circle cx="695.52" cy="623.47" r="3" fill="#e41a1c"/>
  <circle cx="427.99" cy="104.70" r="3" fill="#e41a1c"/>
  <circle cx="415.25" cy="86.03" r="3" fill="#e41a1c"/>
  <circle cx="413.82" cy="151.02" r="3" fill="#e41a1c"/>
  <circle cx="413.34" cy="150.43" r="3" fill="#e41a1c"/>
  <circle cx="406.42" cy="169.27" r="3" fill="#e41a1c"/>
  <circle cx="439.78" cy="126.74" r="3" fill="#e41a1c"/>
  <circle cx="133.52" cy="253.00" r="3" fill="#e41a1c"/>
  <circle cx="147.02" cy="260.41" r="3" fill="#e41a1c"/>
  <circle cx="136.24" cy="261.33" r="3" fill="#e41a1c"/>
  <circle cx="184.36" cy="144.61" r="3" fill="#e41a1c"/>
  <circle cx="205.47" cy="164.68" r="3" fill="#e41a1c"/>
  <circle cx="198.26" cy="187.82" r="3" fill="#e41a1c"/>
  <circle cx="131.29" cy="254.51" r="3" fill="#e41a1c"/>
  <circle cx="177.15" cy="270.76" r="3" fill="#e41a1c"/>
  <circle cx="194.75" cy="228.23" r="3" fill="#e41a1c"/>
  <circle cx="181.98" cy="185.23" r="3" fill="#e41a1c"/>
  <circle cx="152.74" cy="241.42" r="3" fill="#e41a1c"/>
  <circle cx="128.56" cy="237.21" r="3" fill="#e41a1c"/>
  <circle cx="150.93" cy="212.65" r="3" fill="#e41a1c"/>
  <circle cx="197.20" cy="248.83" r="3" fill="#e41a1c"/>
  <circle cx="225.24" cy="286.81" r="3" fill="#e41a1c"/>
  <circle cx="106.38" cy="273.79" r="3" fill="#e41a1c"/>
  <circle cx="166.26" cy="204.62" r="3" fill="#e41a1c"/>
  <circle cx="155.81" cy="295.52" r="3" fill="#e41a1c"/>
  <circle cx="122.65" cy="256.53" r="3" fill="#e41a1c"/>
  <circle cx="145.22" cy="325.36" r="3" fill="#e41a1c"/>
  <circle cx="133.87" cy="298.84" r="3" fill="#e41a1c"/>
  <circle cx="211.26" cy="215.21" r="3" fill="#e41a1c"/>
  <circle cx="123.87" cy="325.80" r="3" fill="#e41a1c"/>
  <circle cx="211.24" cy="270.37" r="3" fill="#e41a1c"/>
  <circle cx="134.28" cy="256.26" r="3" fill="#e41a1c"/>
  <circle cx="134.95" cy="257.74" r="3" fill="#e41a1c"/>
  <circle cx="797.24" cy="652.58" r="3" fill="#e41a1c"/>
  <circle cx="965.92" cy="778.70" r="3" fill="#e41a1c"/>
  <circle cx="874.46" cy="670.40" r="3" fill="#e41a1c"/>
  <circle cx="896.92" cy="701.52" r="3" fill="#e41a1c"/>
  <circle cx="877.64" cy="669.73" r="3" fill="#e41a1c"/>
  <circle cx="843.62" cy="698.61" r="3" fill="#e41a1c"/>
  <circle cx="868.94" cy="667.78" r="3" fill="#e41a1c"/>
  <circle cx="910.69" cy="685.29" r="3" fill="#e41a1c"/>
  <circle cx="933.75" cy="729.07" r="3" fill="#e41a1c"/>
  <circle cx="755.70" cy="607.90" r="3" fill="#e41a1c"/>
  <circle cx="991.60" cy="774.61" r="3" fill="#e41a1c"/>
  <circle cx="881.58" cy="718.53" r="3" fill="#e41a1c"/>
  <circle cx="876.28" cy="672.15" r="3" fill="#e41a1c"/>
  <circle cx="960.43" cy="719.43" r="3" fill="#e41a1c"/>
  <circle cx="980.22" cy="749.89" r="3" fill="#e41a1c"/>
  <circle cx="906.75" cy="736.06" r="3" fill="#e41a1c"/>
  <circle cx="826.60" cy="647.14" r="3" fill="#e41a1c"/>
  <circle cx="845.54" cy="654.58" r="3" fill="#e41a1c"/>
  <circle cx="875.44" cy="668.28" r="3" fill="#e41a1c"/>
  <circle cx="767.83" cy="632.29" r="3" fill="#e41a1c"/>
  <circle cx="186.86" cy="723.67" r="3" fill="#e41a1c"/>
  <circle cx="279.90" cy="689.10" r="3" fill="#e41a1c"/>
  <circle cx="267.33" cy="750.58" r="3" fill="#e41a1c"/>
  <circle cx="286.12" cy="797.46" r="3" fill="#e41a1c"/>
  <circle cx="203.91" cy="856.47" r="3" fill="#e41a1c"/>
  <circle cx="250.54" cy="864.48" r="3" fill="#e41a1c"/>
  <circle cx="224.92" cy="831.76" r="3" fill="#e41a1c"/>
  <circle cx="251.30" cy="865.53" r="3" fill="#e41a1c"/>
  <circle cx="251.95" cy="865.50" r="3" fill="#e41a1c"/>
  <circle cx="208.48" cy="795.06" r="3" fill="#e41a1c"/>
  <circle cx="250.63" cy="863.10" r="3" fill="#e41a1c"/>
  <circle cx="251.27" cy="863.61" r="3" fill="#e41a1c"/>
  <circle cx="205.85" cy="709.09" r="3" fill="#e41a1c"/>
  <circle cx="251.35" cy="861.51" r="3" fill="#e41a1c"/>
  <circle cx="613.41" cy="1061.09" r="3" fill="#e41a1c"/>
  <circle cx="631.82" cy="1061.61" r="3" fill="#e41a1c"/>
  <circle cx="639.89" cy="1087.76" r="3" fill="#e41a1c"/>
  <circle cx="570.45" cy="1043.92" r="3" fill="#e41a1c"/>
  <circle cx="737.25" cy="1033.71" r="3" fill="#e41a1c"/>
  <circle cx="675.36" cy="1055.99" r="3" fill="#e41a1c"/>
  <circle cx="588.70" cy="984.57" r="3" fill="#e41a1c"/>
  <circle cx="619.67" cy="995.37" r="3" fill="#e41a1c"/>
  <circle cx="589.51" cy="984.17" r="3" fill="#e41a1c"/>
  <circle cx="699.60" cy="1107.83" r="3" fill="#e41a1c"/>
  <circle cx="706.58" cy="1115.34" r="3" fill="#e41a1c"/>
  <circle cx="688.80" cy="1103.18" r="3" fill="#e41a1c"/>
  <circle cx="738.34" cy="1106.20" r="3" fill="#e41a1c"/>
  <circle cx="748.33" cy="1090.74" r="3" fill="#e41a1c"/>
  <circle cx="528.01" cy="990.86" r="3" fill="#e41a1c"/>
  <circle cx="531.95" cy="1029.68" r="3" fill="#e41a1c"/>
  <circle cx="592.95" cy="980.93" r="3" fill="#e41a1c"/>
  <circle cx="564.54" cy="988.72" r="3" fill="#e41a1c"/>
  <circle cx="735.25" cy="1041.80" r="3" fill="#e41a1c"/>
  <circle cx="728.91" cy="1044.90" r="3" fill="#e41a1c"/>
  <circle cx="728.68" cy="1047.82" r="3" fill="#e41a1c"/>
  <circle cx="768.97" cy="976.46" r="3" fill="#e41a1c"/>
  <circle cx="589.75" cy="978.39" r="3" fill="#e41a1c"/>
  <circle cx="593.01" cy="982.79" r="3" fill="#e41a1c"/>
  <circle cx="593.33" cy="982.69" r="3" fill="#e41a1c"/>
  <circle cx="330.84" cy="357.81" r="3" fill="#e41a1c"/>
  <circle cx="330.47" cy="364.04" r="3" fill="#e41a1c"/>
  <circle cx="365.28" cy="382.67" r="3" fill="#e41a1c"/>
  <circle cx="395.34" cy="374.70" r="3" fill="#e41a1c"/>
  <circle cx="378.16" cy="376.25" r="3" fill="#e41a1c"/>
  <circle cx="408.22" cy="377.60" r="3" fill="#e41a1c"/>
  <circle cx="391.39" cy="428.45" r="3" fill="#e41a1c"/>
  <circle cx="374.20" cy="401.31" r="3" fill="#e41a1c"/>
  <circle cx="348.85" cy="413.18" r="3" fill="#e41a1c"/>
  <circle cx="364.09" cy="476.83" r="3" fill="#e41a1c"/>
  <circle cx="365.18" cy="437.91" r="3" fill="#e41a1c"/>
  <circle cx="348.29" cy="489.91" r="3" fill="#e41a1c"/>
  <circle cx="469.28" cy="397.32" r="3" fill="#e41a1c"/>
  <circle cx="472.84" cy="422.50" r="3" fill="#e41a1c"/>
  <circle cx="413.03" cy="494.06" r="3" fill="#e41a1c"/>
  <circle cx="433.91" cy="370.55" r="3" fill="#e41a1c"/>
  <circle cx="427.75" cy="394.23" r="3" fill="#e41a1c"/>
  <circle cx="424.99" cy="391.79" r="3" fill="#e41a1c"/>
  <circle cx="419.47" cy="391.43" r="3" fill="#e41a1c"/>
  <circle cx="414.99" cy="423.72" r="3" fill="#e41a1c"/>
  <circle cx="467.44" cy="458.79" r="3" fill="#e41a1c"/>
  <circle cx="340.81" cy="376.06" r="3" fill="#e41a1c"/>
  <circle cx="447.76" cy="413.61" r="3" fill="#e41a1c"/>
  <circle cx="397.35" cy="395.10" r="3" fill="#e41a1c"/>
  <circle cx="354.36" cy="395.24" r="3" fill="#e41a1c"/>
  <circle cx="429.30" cy="435.53" r="3" fill="#e41a1c"/>
  <circle cx="423.15" cy="386.35" r="3" fill="#e41a1c"/>
  <circle cx="504.12" cy="421.13" r="3" fill="#e41a1c"/>
  <circle cx="510.19" cy="438.68" r="3" fill="#e41a1c"/>
  <circle cx="516.19" cy="483.58" r="3" fill="#e41a1c"/>
  <circle cx="542.23" cy="498.73" r="3" fill="#e41a1c"/>
  <circle cx="494.19" cy="500.10" r="3" fill="#e41a1c"/>
  <circle cx="525.98" cy="521.54" r="3" fill="#e41a1c"/>
  <circle cx="539.22" cy="474.90" r="3" fill="#e41a1c"/>
  <circle cx="536.17" cy="413.57" r="3" fill="#e41a1c"/>
  <circle cx="512.41" cy="462.29" r="3" fill="#e41a1c"/>
  <circle cx="536.48" cy="517.18" r="3" fill="#e41a1c"/>
  <circle cx="105.97" cy="184.01" r="3" fill="#e41a1c"/>
  <circle cx="379.43" cy="215.10" r="3" fill="#e41a1c"/>
  <circle cx="477.13" cy="154.52" r="3" fill="#e41a1c"/>
  <circle cx="504.65" cy="192.57" r="3" fill="#e41a1c"/>
  <circle cx="523.03" cy="179.76" r="3" fill="#e41a1c"/>
  <circle cx="507.10" cy="169.33" r="3" fill="#e41a1c"/>
  <circle cx="478.16" cy="190.69" r="3" fill="#e41a1c"/>
  <circle cx="486.68" cy="180.18" r="3" fill="#e41a1c"/>
  <circle cx="501.02" cy="207.73" r="3" fill="#e41a1c"/>
  <circle cx="511.23" cy="215.48" r="3" fill="#e41a1c"/>
  <circle cx="492.85" cy="209.11" r="3" fill="#e41a1c"/>
  <circle cx="507.03" cy="239.81" r="3" fill="#e41a1c"/>
  <circle cx="551.56" cy="180.87" r="3" fill="#e41a1c"/>
  <circle cx="530.07" cy="195.21" r="3" fill="#e41a1c"/>
  <circle cx="468.37" cy="253.64" r="3" fill="#e41a1c"/>
  <circle cx="488.01" cy="256.49" r="3" fill="#e41a1c"/>
  <circle cx="466.49" cy="193.82" r="3" fill="#e41a1c"/>
  <circle cx="486.51" cy="230.45" r="3" fill="#e41a1c"/>
  <circle cx="461.35" cy="239.94" r="3" fill="#e41a1c"/>
  <circle cx="463.08" cy="183.41" r="3" fill="#e41a1c"/>
  <circle cx="445.21" cy="171.34" r="3" fill="#e41a1c"/>
  <circle cx="436.43" cy="185.47" r="3" fill="#e41a1c"/>
  <circle cx="447.26" cy="203.35" r="3" fill="#e41a1c"/>
  <circle cx="429.77" cy="206.57" r="3" fill="#e41a1c"/>
  <circle cx="427.91" cy="193.90" r="3" fill="#e41a1c"/>
  <circle cx="428.50" cy="242.08" r="3" fill="#e41a1c"/>
  <circle cx="425.66" cy="220.76" r="3" fill="#e41a1c"/>
  <circle cx="389.10" cy="225.68" r="3" fill="#e41a1c"/>
  <circle cx="474.72" cy="219.37" r="3" fill="#e41a1c"/>
  <circle cx="401.90" cy="214.26" r="3" fill="#e41a1c"/>
</svg>